<?xml version="1.0" standalone="no"?>
<!DOCTYPE svg PUBLIC "-//W3C//DTD SVG 20010904//EN"
 "http://www.w3.org/TR/2001/REC-SVG-20010904/DTD/svg10.dtd">
<svg version="1.0" xmlns="http://www.w3.org/2000/svg"
 width="944.000000pt" height="250.000000pt" viewBox="0 0 944.000000 250.000000"
 preserveAspectRatio="xMidYMid meet">

<g transform="translate(0.000000,250.000000) scale(0.100000,-0.100000)"
fill="#000000" stroke="none">
<path d="M309 1308 c-1 -464 -2 -850 -3 -858 0 -8 2 -17 6 -20 3 -3 211 -4
462 -2 395 2 456 4 456 17 0 13 -59 15 -445 15 l-445 0 0 825 0 825 23 0 c12
0 1984 0 4382 0 l4360 0 3 -825 2 -825 -439 0 c-381 0 -440 -2 -445 -15 -5
-13 46 -15 417 -16 232 -1 440 -1 462 -2 l40 0 3 862 2 861 -4420 0 -4420 0
-1 -842z"/>
<path d="M910 1295 l0 -455 285 0 285 0 0 35 0 35 -250 0 -250 0 0 420 0 420
-35 0 -35 0 0 -455z"/>
<path d="M2587 1743 c-11 -10 -8 -540 3 -617 14 -95 42 -153 101 -208 68 -63
136 -88 243 -88 75 0 90 3 154 35 77 39 118 81 155 162 21 46 22 61 25 386 l3
338 -33 -3 -33 -3 -5 -325 c-5 -303 -6 -328 -26 -370 -25 -53 -74 -104 -129
-133 -30 -15 -59 -21 -115 -21 -65 -1 -82 3 -130 29 -59 33 -112 94 -131 153
-8 24 -14 147 -16 355 l-5 317 -27 0 c-15 0 -31 -3 -34 -7z"/>
<path d="M4480 1295 l0 -455 35 0 35 0 0 390 c0 231 4 390 9 390 5 0 39 -46
76 -102 37 -57 111 -172 166 -255 54 -84 103 -153 108 -153 10 0 71 90 242
359 l104 165 3 -397 2 -397 35 0 35 0 0 455 0 455 -43 0 -42 0 -165 -260 c-91
-142 -168 -259 -171 -260 -3 0 -46 62 -94 138 -49 75 -124 192 -168 260 l-80
122 -44 0 -43 0 0 -455z"/>
<path d="M6550 1295 l0 -455 35 0 35 0 0 455 0 455 -35 0 -35 0 0 -455z"/>
<path d="M7840 1295 l0 -455 35 0 35 0 0 366 c0 223 4 364 9 362 6 -1 140
-165 298 -363 159 -198 297 -361 306 -363 16 -3 17 30 17 453 l0 456 -32 -3
-33 -3 -5 -368 -5 -367 -265 331 c-146 183 -278 349 -293 371 -16 21 -37 38
-48 38 -18 0 -19 -14 -19 -455z"/>
<path d="M1567 530 c-15 -12 -27 -28 -27 -36 0 -25 36 -51 79 -58 45 -7 61
-27 41 -51 -16 -19 -60 -19 -87 0 -22 15 -41 5 -28 -15 9 -14 64 -27 97 -22
34 5 62 43 54 70 -7 20 -45 42 -75 42 -9 0 -26 6 -36 14 -16 12 -17 16 -6 30
16 19 62 21 79 4 8 -8 15 -9 22 -2 15 15 -9 34 -52 40 -24 4 -40 0 -61 -16z"/>
<path d="M1848 544 c-12 -11 -10 -194 2 -194 6 0 10 15 10 34 0 19 3 37 8 39
4 3 25 -12 47 -34 22 -21 46 -39 54 -39 9 0 -4 20 -32 48 l-46 47 39 40 c21
22 39 43 40 48 1 18 -29 4 -60 -28 -19 -19 -37 -35 -41 -35 -4 0 -9 18 -11 41
-2 22 -6 37 -10 33z"/>
<path d="M3585 538 c-2 -7 -6 -40 -7 -72 l-3 -60 -50 67 c-27 36 -56 66 -62
67 -10 0 -13 -26 -13 -96 0 -72 3 -95 13 -92 7 3 12 26 13 64 0 32 4 58 8 57
4 -1 24 -24 44 -50 46 -61 58 -73 71 -73 14 0 15 186 1 195 -6 3 -12 0 -15 -7z"/>
<path d="M4107 534 c-46 -25 -63 -107 -32 -151 28 -39 118 -50 145 -18 6 8 10
31 8 52 -3 36 -5 38 -37 38 -19 -1 -36 -6 -39 -13 -2 -8 8 -12 27 -12 23 0 31
-5 31 -18 0 -41 -55 -56 -98 -26 -17 12 -22 25 -22 59 0 34 5 47 22 59 26 18
61 21 88 6 12 -6 21 -7 25 0 7 11 -46 40 -72 40 -10 -1 -31 -8 -46 -16z"/>
<path d="M6050 448 c0 -55 4 -98 9 -98 6 0 11 17 13 38 l3 37 55 5 c59 6 51
17 -15 22 -37 3 -40 5 -40 33 0 29 2 30 53 33 73 4 65 20 -13 24 l-65 3 0 -97z"/>
<path d="M6374 541 c-32 -14 -64 -60 -64 -93 0 -68 55 -114 121 -101 96 19 91
182 -6 198 -16 2 -40 0 -51 -4z m85 -47 c12 -15 21 -37 21 -49 0 -12 -9 -34
-21 -49 -41 -52 -119 -21 -119 47 0 71 78 104 119 51z"/>
<path d="M7288 537 c-8 -7 -25 -29 -37 -49 -13 -21 -24 -38 -26 -38 -2 0 -18
20 -35 45 -49 71 -60 62 -60 -50 0 -57 4 -95 10 -95 6 0 10 30 10 70 0 39 3
70 8 70 4 0 18 -18 32 -40 14 -22 28 -40 31 -40 3 0 19 19 35 42 l29 41 3 -71
c2 -55 6 -72 17 -72 12 0 15 18 15 94 0 97 -6 114 -32 93z"/>
<path d="M2120 445 c0 -57 4 -95 10 -95 6 0 10 38 10 95 0 57 -4 95 -10 95 -6
0 -10 -38 -10 -95z"/>
<path d="M2300 445 c0 -57 4 -95 10 -95 6 0 10 28 10 65 0 36 4 65 8 65 5 0
30 -29 56 -65 26 -36 53 -65 60 -65 17 0 16 182 -1 187 -8 3 -13 -16 -15 -63
l-3 -68 -53 67 c-30 37 -58 67 -63 67 -5 0 -9 -43 -9 -95z"/>
<path d="M2790 445 c0 -77 3 -95 15 -95 11 0 15 17 17 71 l3 72 25 -38 c14
-21 30 -40 35 -42 6 -1 22 16 37 40 l28 42 0 -72 c0 -58 3 -73 15 -73 12 0 15
17 15 95 0 84 -2 95 -17 95 -10 0 -30 -20 -46 -45 -16 -25 -33 -43 -37 -40 -5
3 -19 23 -31 45 -14 24 -30 40 -41 40 -16 0 -18 -10 -18 -95z"/>
<path d="M3180 496 c-71 -162 -66 -146 -47 -146 7 0 26 32 43 71 16 39 34 71
39 71 6 0 23 -32 39 -71 17 -39 36 -71 43 -71 17 0 19 -5 -26 96 -22 49 -47
90 -55 92 -11 2 -23 -12 -36 -42z"/>
<path d="M3786 450 c-36 -83 -41 -110 -19 -97 5 3 22 37 38 76 17 39 34 70 38
68 5 -1 22 -35 39 -75 18 -44 36 -72 45 -72 8 0 13 4 11 8 -39 97 -84 182 -97
182 -11 0 -29 -31 -55 -90z"/>
<path d="M4380 445 l0 -95 70 0 c84 0 94 18 13 22 -57 3 -58 3 -58 33 0 29 2
30 53 33 66 4 69 22 3 22 -54 0 -66 9 -56 40 5 16 15 20 56 20 27 0 49 5 49
10 0 6 -28 10 -65 10 l-65 0 0 -95z"/>
<path d="M4660 445 c0 -77 3 -95 15 -95 11 0 15 17 17 72 l3 72 28 -42 c15
-23 31 -42 35 -42 4 0 21 19 37 43 l30 42 3 -72 c4 -108 22 -89 22 22 0 112
-11 121 -60 50 -17 -25 -33 -45 -35 -45 -1 0 -15 20 -29 45 -17 29 -34 45 -46
45 -18 0 -20 -7 -20 -95z"/>
<path d="M5010 445 l0 -95 70 0 c84 0 94 18 13 22 -57 3 -58 3 -58 33 0 29 2
30 53 33 28 2 52 7 52 12 0 5 -24 10 -52 12 -49 3 -53 5 -53 28 0 23 4 25 58
28 81 4 71 22 -13 22 l-70 0 0 -95z"/>
<path d="M5290 445 c0 -78 3 -95 15 -95 12 0 15 13 15 61 0 33 4 59 9 57 5 -1
30 -29 55 -60 26 -32 51 -58 57 -58 5 0 9 42 9 95 0 57 -4 95 -10 95 -10 0
-14 -37 -10 -92 3 -46 -15 -39 -65 28 -27 35 -55 64 -62 64 -10 0 -13 -23 -13
-95z"/>
<path d="M5590 530 c0 -5 14 -10 30 -10 l30 0 0 -85 c0 -69 3 -85 15 -85 12 0
15 16 15 85 l0 85 30 0 c17 0 30 5 30 10 0 6 -32 10 -75 10 -43 0 -75 -4 -75
-10z"/>
<path d="M6650 445 c0 -78 3 -95 15 -95 10 0 15 10 15 30 0 48 27 50 64 7 17
-20 37 -37 44 -37 18 0 15 11 -10 37 l-22 23 22 20 c26 24 29 72 6 94 -10 11
-34 16 -75 16 l-59 0 0 -95z m114 59 c9 -8 16 -19 16 -24 0 -20 -34 -40 -66
-40 -33 0 -34 1 -34 40 0 39 1 40 34 40 19 0 42 -7 50 -16z"/>
<path d="M7473 448 l2 -93 68 -3 c42 -2 67 1 67 8 0 6 -23 10 -55 10 l-55 0 0
35 0 35 50 0 c28 0 50 5 50 10 0 6 -22 10 -50 10 -49 0 -50 1 -50 30 0 30 1
30 55 30 30 0 55 5 55 10 0 6 -30 10 -69 10 l-69 0 1 -92z"/>
<path d="M7760 445 c0 -57 4 -95 10 -95 6 0 10 27 10 60 0 41 4 60 13 60 6 0
32 -27 55 -60 24 -33 48 -60 53 -60 5 0 9 43 9 95 0 108 -18 131 -22 28 l-3
-67 -53 67 c-30 37 -58 67 -63 67 -5 0 -9 -43 -9 -95z"/>
</g>
</svg>
